<svg width="85" height="85" viewBox="0 0 85 85" fill="none" xmlns="http://www.w3.org/2000/svg">
<circle cx="42.5" cy="42.5" r="42" stroke="#192A32"/>
<path d="M29.0068 32.2525V52.7194H24.9154V36.9098L20 38.4529V35.2685L28.5664 32.2525H29.0068Z" fill="#192A32"/>
<path d="M49.677 47.1222C49.677 48.4035 49.3739 49.4836 48.7678 50.3627C48.1616 51.2325 47.3282 51.8918 46.2675 52.3407C45.2162 52.7802 44.0229 53 42.6875 53C41.3521 53 40.154 52.7802 39.0933 52.3407C38.0325 51.8918 37.1944 51.2325 36.5788 50.3627C35.9631 49.4836 35.6553 48.4035 35.6553 47.1222C35.6553 46.2619 35.8306 45.4856 36.181 44.7936C36.5314 44.0922 37.0191 43.4937 37.6442 42.998C38.2788 42.493 39.0222 42.1096 39.8746 41.8477C40.727 41.5765 41.6551 41.4409 42.659 41.4409C44.0039 41.4409 45.2067 41.6747 46.2675 42.1423C47.3282 42.6099 48.1616 43.2692 48.7678 44.1202C49.3739 44.9713 49.677 45.9719 49.677 47.1222ZM45.5571 46.8557C45.5571 46.2291 45.434 45.6914 45.1878 45.2425C44.951 44.7842 44.6148 44.4335 44.1791 44.1904C43.7435 43.9472 43.2368 43.8257 42.659 43.8257C42.0813 43.8257 41.5746 43.9472 41.139 44.1904C40.7033 44.4335 40.3624 44.7842 40.1161 45.2425C39.8794 45.6914 39.761 46.2291 39.761 46.8557C39.761 47.4729 39.8794 48.006 40.1161 48.4549C40.3624 48.9038 40.7033 49.2498 41.139 49.493C41.5841 49.7268 42.1003 49.8437 42.6875 49.8437C43.2747 49.8437 43.7813 49.7268 44.2075 49.493C44.6432 49.2498 44.9747 48.9038 45.202 48.4549C45.4387 48.006 45.5571 47.4729 45.5571 46.8557ZM49.2366 37.7094C49.2366 38.7475 48.9572 39.6687 48.3984 40.4729C47.8396 41.2679 47.063 41.8898 46.0686 42.3387C45.0836 42.7876 43.9566 43.012 42.6875 43.012C41.4089 43.012 40.2724 42.7876 39.278 42.3387C38.2835 41.8898 37.5069 41.2679 36.9481 40.4729C36.3893 39.6687 36.1099 38.7475 36.1099 37.7094C36.1099 36.4749 36.3893 35.4369 36.9481 34.5952C37.5164 33.7442 38.293 33.0989 39.278 32.6593C40.2724 32.2198 41.3994 32 42.659 32C43.9376 32 45.0694 32.2198 46.0544 32.6593C47.0488 33.0989 47.8254 33.7442 48.3842 34.5952C48.9524 35.4369 49.2366 36.4749 49.2366 37.7094ZM45.1452 37.8918C45.1452 37.34 45.0457 36.8631 44.8468 36.4609C44.6479 36.0494 44.3638 35.7315 43.9944 35.507C43.6345 35.2826 43.1894 35.1703 42.659 35.1703C42.1476 35.1703 41.7072 35.2779 41.3379 35.493C40.978 35.7081 40.6986 36.0214 40.4997 36.4329C40.3103 36.835 40.2156 37.3213 40.2156 37.8918C40.2156 38.4436 40.3103 38.9299 40.4997 39.3507C40.6986 39.7622 40.9827 40.0848 41.3521 40.3186C41.7214 40.5524 42.1666 40.6693 42.6875 40.6693C43.2084 40.6693 43.6488 40.5524 44.0086 40.3186C44.378 40.0848 44.6574 39.7622 44.8468 39.3507C45.0457 38.9299 45.1452 38.4436 45.1452 37.8918Z" fill="#192A32"/>
<path d="M66 41.3427V44.8637H51.8221V41.3427H66ZM60.8573 35.8016V50.6713H56.979V35.8016H60.8573Z" fill="#192A32"/>
</svg>
