<svg width="31" height="36" viewBox="0 0 31 36" fill="none" xmlns="http://www.w3.org/2000/svg">
<path d="M25.4805 19.0893C25.4983 17.7222 25.8663 16.3819 26.5502 15.1929C27.2341 14.0039 28.2116 13.0049 29.3919 12.2889C28.6421 11.2322 27.653 10.3626 26.503 9.74917C25.353 9.13571 24.0739 8.7953 22.7673 8.75496C19.9801 8.46626 17.278 10.4007 15.8577 10.4007C14.4099 10.4007 12.2231 8.78362 9.86821 8.83143C8.34504 8.87998 6.8606 9.31705 5.55951 10.1C4.25841 10.883 3.18505 11.9852 2.444 13.2992C-0.766005 18.7834 1.62837 26.8433 4.70334 31.2763C6.24183 33.447 8.03986 35.8717 10.3926 35.7857C12.6948 35.6915 13.5547 34.3371 16.3337 34.3371C19.0869 34.3371 19.8936 35.7857 22.2941 35.7311C24.7646 35.6915 26.321 33.5507 27.8056 31.3595C28.911 29.8127 29.7616 28.1033 30.3259 26.2944C28.8906 25.6954 27.6658 24.6928 26.8041 23.4115C25.9425 22.1302 25.4821 20.627 25.4805 19.0893Z" fill="#192A32"/>
<path d="M20.9465 5.83939C22.2935 4.2438 22.9571 2.19293 22.7964 0.122314C20.7385 0.335593 18.8376 1.30611 17.4725 2.84048C16.805 3.59006 16.2938 4.46211 15.968 5.40676C15.6423 6.35142 15.5084 7.35016 15.5741 8.34589C16.6034 8.35635 17.6217 8.1362 18.5523 7.70203C19.4829 7.26787 20.3015 6.631 20.9465 5.83939V5.83939Z" fill="#192A32"/>
</svg>
