<svg width="24" height="32" viewBox="0 0 24 32" fill="none" xmlns="http://www.w3.org/2000/svg">
<path d="M9 26H15V28H9V26Z" fill="#192A32"/>
<path d="M15.4949 6.42733L13.2994 6.09189L12.3174 4H10.6826L9.7007 6.09189L7.50508 6.42733L7 8.06215L8.58865 9.69039L8.21364 11.9896L9.53621 12.9999L11.5 11.9145L13.4637 13L14.7864 11.9897L14.4113 9.69046L16 8.06221L15.4949 6.42733ZM12.6793 10.4024L11.5 9.75054L10.3207 10.4024L10.5459 9.02174L9.59189 8.04395L10.9104 7.84252L11.5 6.5863L12.0897 7.84246L13.4081 8.04389L12.4541 9.02168L12.6793 10.4024Z" fill="#192A32"/>
<path d="M20.3065 1.88281V0H3.69349V1.88281H0V7.46756C0 10.416 2.20549 12.8491 5.02271 13.1423C5.63929 14.1131 6.44524 14.9476 7.38697 15.5911C7.29275 17.1711 7.92779 18.7636 9.21036 19.7453C9.10559 20.7944 8.64638 21.8154 7.92791 22.5938H5.54023V32H18.4598V22.5938H16.0721C15.353 21.8147 14.8937 20.7926 14.7895 19.7426C15.9981 18.8391 16.7144 17.2185 16.613 15.5911C17.5548 14.9476 18.3607 14.113 18.9773 13.1423C21.7946 12.8491 24 10.416 24 7.46756V1.88281H20.3065ZM1.83908 7.46756V3.75781H3.69349V8.55188C3.69349 9.384 3.81235 10.1883 4.0328 10.9486C2.73968 10.3429 1.83908 9.01088 1.83908 7.46756ZM16.6207 30.125H7.37931V24.4688H16.6207V30.125ZM13.8031 22.5938H10.1969C10.5477 21.9656 10.801 21.2821 10.9424 20.5784C11.2852 20.66 11.6393 20.7031 12.0001 20.7031C12.3639 20.7031 12.7175 20.6586 13.0573 20.5769C13.1987 21.2812 13.4521 21.9652 13.8031 22.5938ZM12.0001 18.8281C10.7602 18.8501 9.51442 17.8713 9.2789 16.5534C10.1319 16.8558 11.0474 17.0206 12 17.0206C12.9523 17.0206 13.8675 16.8559 14.7202 16.5537C14.4669 17.8489 13.3437 18.8281 12.0001 18.8281ZM12 15.1456C8.43384 15.1456 5.53257 12.1877 5.53257 8.55188V1.875H18.4674V8.55188C18.4674 12.1877 15.5662 15.1456 12 15.1456ZM22.1609 7.46756C22.1609 9.01088 21.2603 10.3429 19.9672 10.9486C20.1876 10.1883 20.3065 9.38406 20.3065 8.55188V3.75781H22.1609V7.46756Z" fill="#192A32"/>
</svg>
