<svg width="120" height="55" viewBox="0 0 120 55" fill="none" xmlns="http://www.w3.org/2000/svg">
<rect width="120" height="55" fill="#141E55"/>
<path d="M35.36 33.02H40.24V34.5H33.54V20.56H35.36V33.02ZM48.4928 34.64C47.1995 34.64 46.0195 34.34 44.9528 33.74C43.8861 33.1267 43.0395 32.28 42.4128 31.2C41.7995 30.1067 41.4928 28.88 41.4928 27.52C41.4928 26.16 41.7995 24.94 42.4128 23.86C43.0395 22.7667 43.8861 21.92 44.9528 21.32C46.0195 20.7067 47.1995 20.4 48.4928 20.4C49.7995 20.4 50.9861 20.7067 52.0528 21.32C53.1195 21.92 53.9595 22.76 54.5728 23.84C55.1861 24.92 55.4928 26.1467 55.4928 27.52C55.4928 28.8933 55.1861 30.12 54.5728 31.2C53.9595 32.28 53.1195 33.1267 52.0528 33.74C50.9861 34.34 49.7995 34.64 48.4928 34.64ZM48.4928 33.06C49.4661 33.06 50.3395 32.8333 51.1128 32.38C51.8995 31.9267 52.5128 31.28 52.9528 30.44C53.4061 29.6 53.6328 28.6267 53.6328 27.52C53.6328 26.4 53.4061 25.4267 52.9528 24.6C52.5128 23.76 51.9061 23.1133 51.1328 22.66C50.3595 22.2067 49.4795 21.98 48.4928 21.98C47.5061 21.98 46.6261 22.2067 45.8528 22.66C45.0795 23.1133 44.4661 23.76 44.0128 24.6C43.5728 25.4267 43.3528 26.4 43.3528 27.52C43.3528 28.6267 43.5728 29.6 44.0128 30.44C44.4661 31.28 45.0795 31.9267 45.8528 32.38C46.6395 32.8333 47.5195 33.06 48.4928 33.06ZM68.4555 24.6C68.0688 23.7867 67.5088 23.16 66.7755 22.72C66.0421 22.2667 65.1888 22.04 64.2155 22.04C63.2421 22.04 62.3621 22.2667 61.5755 22.72C60.8021 23.16 60.1888 23.8 59.7355 24.64C59.2955 25.4667 59.0755 26.4267 59.0755 27.52C59.0755 28.6133 59.2955 29.5733 59.7355 30.4C60.1888 31.2267 60.8021 31.8667 61.5755 32.32C62.3621 32.76 63.2421 32.98 64.2155 32.98C65.5755 32.98 66.6955 32.5733 67.5755 31.76C68.4555 30.9467 68.9688 29.8467 69.1155 28.46H63.5555V26.98H71.0555V28.38C70.9488 29.5267 70.5888 30.58 69.9755 31.54C69.3621 32.4867 68.5555 33.24 67.5555 33.8C66.5555 34.3467 65.4421 34.62 64.2155 34.62C62.9221 34.62 61.7421 34.32 60.6755 33.72C59.6088 33.1067 58.7621 32.26 58.1355 31.18C57.5221 30.1 57.2155 28.88 57.2155 27.52C57.2155 26.16 57.5221 24.94 58.1355 23.86C58.7621 22.7667 59.6088 21.92 60.6755 21.32C61.7421 20.7067 62.9221 20.4 64.2155 20.4C65.6955 20.4 67.0021 20.7667 68.1355 21.5C69.2821 22.2333 70.1155 23.2667 70.6355 24.6H68.4555ZM79.7819 34.64C78.4885 34.64 77.3085 34.34 76.2419 33.74C75.1752 33.1267 74.3285 32.28 73.7019 31.2C73.0885 30.1067 72.7819 28.88 72.7819 27.52C72.7819 26.16 73.0885 24.94 73.7019 23.86C74.3285 22.7667 75.1752 21.92 76.2419 21.32C77.3085 20.7067 78.4885 20.4 79.7819 20.4C81.0885 20.4 82.2752 20.7067 83.3419 21.32C84.4085 21.92 85.2485 22.76 85.8619 23.84C86.4752 24.92 86.7819 26.1467 86.7819 27.52C86.7819 28.8933 86.4752 30.12 85.8619 31.2C85.2485 32.28 84.4085 33.1267 83.3419 33.74C82.2752 34.34 81.0885 34.64 79.7819 34.64ZM79.7819 33.06C80.7552 33.06 81.6285 32.8333 82.4019 32.38C83.1885 31.9267 83.8019 31.28 84.2419 30.44C84.6952 29.6 84.9219 28.6267 84.9219 27.52C84.9219 26.4 84.6952 25.4267 84.2419 24.6C83.8019 23.76 83.1952 23.1133 82.4219 22.66C81.6485 22.2067 80.7685 21.98 79.7819 21.98C78.7952 21.98 77.9152 22.2067 77.1419 22.66C76.3685 23.1133 75.7552 23.76 75.3019 24.6C74.8619 25.4267 74.6419 26.4 74.6419 27.52C74.6419 28.6267 74.8619 29.6 75.3019 30.44C75.7552 31.28 76.3685 31.9267 77.1419 32.38C77.9285 32.8333 78.8085 33.06 79.7819 33.06Z" fill="white"/>
</svg>
